<?xml version="1.0" standalone="no"?>
<!DOCTYPE svg PUBLIC "-//W3C//DTD SVG 20010904//EN"
 "http://www.w3.org/TR/2001/REC-SVG-20010904/DTD/svg10.dtd">
<svg version="1.0" xmlns="http://www.w3.org/2000/svg"
 width="785.000000pt" height="1280.000000pt" viewBox="0 0 785.000000 1280.000000"
 preserveAspectRatio="xMidYMid meet">
<metadata>
Created by potrace 1.15, written by Peter Selinger 2001-2017
</metadata>
<g transform="translate(0.000000,1280.000000) scale(0.100000,-0.100000)"
fill="#000000" stroke="none">
<path d="M6193 12726 c-139 -39 -253 -73 -253 -76 0 -4 547 -355 708 -454 23
-14 42 -33 42 -41 0 -9 11 -21 25 -27 14 -6 25 -17 25 -25 0 -28 -44 -11 -97
38 -31 27 -79 62 -107 76 -28 14 -145 89 -261 167 -219 148 -382 245 -355 211
14 -18 12 -17 -22 2 l-37 22 -6 -30 c-5 -23 -10 -27 -24 -20 -12 7 -51 -1
-130 -24 -62 -19 -116 -36 -119 -39 -3 -3 3 -16 14 -28 l19 -22 -27 17 c-15 9
-32 17 -38 17 -11 0 -628 -355 -681 -391 -18 -13 -29 -34 -38 -73 -7 -31 -14
-56 -17 -56 -2 0 -36 16 -74 35 -38 19 -73 35 -78 35 -5 0 -7 -22 -4 -50 2
-27 1 -50 -4 -50 -5 0 -29 11 -53 25 -23 14 -45 25 -47 25 -2 0 -7 -15 -12
-32 -6 -24 -14 -32 -28 -31 -17 1 -807 -470 -843 -503 -11 -10 -7 -16 25 -33
22 -11 34 -20 28 -21 -6 0 -32 12 -57 26 l-46 25 -21 -33 c-11 -18 -20 -37
-20 -42 0 -4 -10 -6 -22 -3 -16 5 -154 -67 -537 -279 -284 -158 -518 -289
-521 -291 -3 -3 0 -8 6 -10 6 -2 20 -10 30 -18 17 -13 16 -14 -14 -4 -18 6
-34 10 -36 8 -2 -2 -6 -40 -9 -85 l-6 -81 37 -18 c26 -13 32 -20 20 -22 -9 -2
-39 7 -67 21 l-50 26 -15 -22 c-28 -45 -210 -417 -206 -421 3 -2 361 -211 795
-462 435 -252 792 -460 794 -462 3 -2 -6 -14 -19 -28 -20 -22 -26 -23 -39 -11
-26 22 -671 422 -755 467 -42 22 -76 37 -76 33 0 -4 49 -95 109 -203 143 -258
135 -242 117 -235 -8 3 -16 11 -19 17 -2 7 -97 120 -211 252 -158 184 -218
247 -259 271 -48 28 -52 33 -50 66 2 35 1 35 -112 99 -62 35 -115 71 -118 79
-4 15 -144 96 -152 88 -2 -1 -77 -175 -168 -385 l-165 -383 54 -31 c35 -20 54
-37 54 -49 0 -18 -3 -17 -42 5 -24 14 -48 25 -53 25 -6 0 -37 -73 -69 -162
-32 -90 -71 -197 -86 -239 l-28 -75 156 -94 c87 -52 181 -109 210 -127 l52
-34 -25 -37 -26 -37 29 -25 c630 -545 824 -710 855 -729 21 -13 37 -25 35 -27
-2 -1 -43 -11 -91 -22 l-87 -19 -51 29 c-28 16 -252 115 -497 220 -246 104
-450 192 -455 195 -28 17 21 -31 226 -224 262 -246 326 -304 350 -318 16 -9
16 -12 -5 -38 l-23 -28 -315 326 c-277 286 -324 331 -388 367 -40 22 -75 38
-78 35 -3 -2 13 -104 34 -226 21 -124 34 -221 28 -221 -5 0 -29 12 -53 26 -25
14 -46 24 -48 22 -6 -6 -215 -588 -215 -599 0 -9 433 -302 459 -310 10 -4 34
-89 27 -96 0 -1 -84 58 -186 131 -205 147 -326 219 -317 189 3 -10 35 -102 71
-205 36 -104 63 -188 60 -188 -2 0 -22 9 -43 19 l-37 20 -87 -241 c-48 -132
-86 -242 -85 -243 2 -1 98 -60 213 -130 116 -70 211 -129 213 -130 3 -3 -15
-43 -23 -53 -2 -2 -50 27 -107 65 -122 82 -257 158 -265 149 -4 -3 -18 -212
-33 -464 l-27 -457 -407 -644 c-224 -354 -405 -645 -404 -646 15 -12 137 -75
145 -75 5 0 162 198 349 439 186 242 340 438 342 437 1 -2 -36 -162 -83 -357
-47 -195 -85 -362 -85 -371 0 -9 9 -20 20 -23 11 -3 20 -9 20 -13 0 -4 -103
-286 -229 -627 -215 -585 -227 -621 -210 -634 17 -12 16 -17 -27 -76 l-45 -64
28 -15 28 -14 -30 -7 c-16 -4 -34 -8 -39 -9 -5 -1 -64 -164 -132 -362 -100
-291 -120 -361 -109 -369 7 -5 21 -15 31 -21 17 -10 9 -24 -84 -148 -56 -75
-107 -147 -112 -159 -5 -12 -24 -73 -40 -136 -33 -123 -34 -116 23 -147 26
-14 27 -16 12 -37 -14 -20 -13 -22 7 -33 21 -12 21 -12 -17 -30 -32 -15 -43
-28 -58 -69 -18 -49 -18 -49 4 -66 l22 -16 -27 -7 c-15 -4 -26 -11 -24 -16 2
-5 84 -70 183 -145 206 -157 241 -187 105 -91 -86 60 -248 156 -263 156 -3 0
12 -38 33 -85 37 -79 40 -101 12 -73 -9 9 -13 8 -16 -3 -9 -24 -24 -154 -19
-162 2 -4 25 -18 51 -32 42 -22 45 -25 24 -31 -12 -3 -22 -9 -22 -13 0 -15
374 -187 648 -298 7 -3 -30 77 -81 177 l-94 182 -79 50 c-106 67 -116 80 -22
29 l78 -42 -35 81 c-40 93 -39 91 -22 84 10 -4 18 40 35 198 13 112 22 211 22
221 0 9 -11 23 -25 29 -14 6 -25 14 -25 17 0 3 33 21 74 39 41 19 82 39 90 45
9 7 133 309 275 672 l259 660 -29 17 c-31 19 -35 32 -19 73 l10 26 57 -30 c31
-17 57 -30 58 -28 1 1 37 160 80 352 43 193 80 358 83 367 2 11 -7 22 -27 33
-29 14 -31 19 -25 49 5 29 3 35 -15 41 -12 3 -21 9 -21 13 0 4 74 45 165 91
134 68 165 88 165 105 0 12 -10 92 -21 179 -20 144 -24 159 -45 170 -16 8 -21
16 -15 26 7 11 18 9 56 -12 l47 -27 37 22 c40 23 36 15 118 245 3 6 -14 21
-36 33 -23 11 -41 25 -41 30 0 5 9 25 21 44 11 19 18 39 15 44 -3 5 -83 65
-178 134 -173 125 -277 188 -309 188 -9 0 -37 12 -63 26 l-46 26 22 28 23 28
30 -24 c96 -78 556 -374 580 -374 1 0 -4 26 -11 57 -7 31 -11 59 -9 61 2 3 15
-2 29 -11 13 -9 26 -13 30 -10 3 4 6 87 6 185 0 98 3 178 8 178 4 0 22 -9 40
-20 18 -11 34 -20 36 -20 2 0 9 69 16 154 l12 154 -28 36 c-29 37 -157 112
-184 109 -8 -1 -40 14 -72 34 -50 31 -56 38 -47 55 16 31 34 31 79 3 64 -40
270 -155 279 -155 4 0 -25 92 -66 205 -40 113 -73 211 -73 218 0 6 122 169
270 361 l270 348 0 74 0 74 40 -20 c21 -11 41 -20 44 -20 2 0 7 14 11 31 5 23
11 29 23 24 10 -4 25 -9 34 -12 9 -3 92 38 193 95 l176 99 -74 41 c-68 38 -85
42 -188 53 -113 11 -114 11 -179 58 -36 26 -91 62 -122 80 l-58 32 15 29 15
29 187 -91 c357 -172 433 -207 426 -195 -97 161 -400 627 -415 640 -12 10 -18
20 -14 24 8 8 -13 36 206 -277 105 -151 199 -282 208 -291 10 -9 47 -32 83
-52 l67 -35 242 153 c133 84 244 156 246 158 3 3 -28 23 -68 45 -65 36 -321
118 -962 309 -14 4 -16 7 -5 13 7 5 25 2 42 -7 16 -8 212 -51 435 -94 375 -74
407 -79 419 -64 11 16 21 11 105 -47 99 -69 228 -142 228 -130 0 4 -4 24 -9
45 -10 40 -9 42 18 27 14 -7 40 6 127 66 60 42 114 78 121 82 6 4 60 196 118
427 l107 419 -27 22 c-26 21 -27 22 -11 52 22 42 21 46 -19 65 -19 9 -35 22
-35 28 0 6 39 165 86 353 48 187 87 347 88 354 0 8 -32 32 -72 54 l-74 41 -50
-49 c-34 -33 -48 -42 -45 -29 58 216 59 219 44 230 -9 5 -24 16 -34 23 -15 10
8 12 130 8 81 -2 147 -3 147 -1 0 16 -201 103 -460 200 -173 65 -326 122 -340
128 -24 9 -24 10 -5 17 39 16 75 10 137 -24 35 -19 198 -89 363 -156 165 -68
305 -128 311 -134 7 -7 20 -220 36 -620 22 -548 26 -610 42 -621 16 -12 8 -40
-103 -375 -119 -360 -120 -363 -99 -379 l20 -17 -25 -52 -25 -52 29 -17 c27
-16 27 -18 12 -35 -20 -22 -19 -23 64 -68 l67 -36 141 23 c77 13 149 25 161
28 l20 4 -18 113 c-15 88 -23 116 -39 129 -17 12 -18 17 -7 26 10 8 40 -4 118
-47 73 -39 106 -53 108 -43 5 17 8 17 54 -9 l39 -22 137 45 c123 41 137 48
140 70 1 13 5 35 8 47 5 23 6 23 30 7 13 -8 30 -13 36 -9 7 4 187 153 400 330
l388 322 -48 27 c-26 16 -157 136 -297 275 -137 136 -259 252 -270 258 -11 6
-17 13 -14 17 4 3 116 -79 250 -183 201 -156 298 -222 381 -260 4 -2 -31 77
-78 175 -101 209 -138 290 -127 279 4 -4 53 -80 109 -169 l100 -162 75 -42
c40 -24 76 -43 79 -43 3 0 24 46 46 102 33 81 47 104 65 109 13 3 69 34 124
69 55 35 101 64 103 65 1 1 -16 53 -39 116 l-42 114 -68 38 c-79 43 -85 44
-94 16 -4 -12 -10 -17 -15 -13 -4 5 -42 88 -85 184 -42 96 -82 180 -89 187
-17 19 -137 82 -288 152 -81 38 -138 70 -138 79 0 10 8 9 34 -7 28 -17 50 -21
129 -21 l95 0 120 -127 c96 -102 135 -136 191 -166 78 -42 78 -42 60 43 -6 28
-9 54 -6 56 3 3 19 -2 37 -11 21 -11 29 -21 26 -33 -15 -52 -57 -225 -54 -227
10 -9 279 -155 286 -155 5 0 6 14 4 32 -4 27 -2 30 14 23 11 -4 26 -9 34 -12
8 -2 65 19 125 48 l110 51 -55 50 c-60 55 -59 56 17 15 l53 -27 165 102 c90
57 165 105 165 109 0 3 -29 21 -65 40 l-64 34 102 5 102 5 49 89 c39 70 46 90
35 97 -56 32 -55 35 14 54 62 17 67 20 72 49 13 79 10 101 -12 117 -22 15 -21
16 72 58 94 43 94 43 100 85 3 22 21 196 40 386 20 190 38 364 41 386 l6 42
-64 35 c-94 53 -89 53 -133 -4 -46 -61 -53 -54 -54 55 -1 50 -6 75 -18 88 -31
35 -4 30 59 -9 70 -44 168 -96 173 -91 5 5 -91 523 -99 536 -4 7 -29 23 -56
37 -47 24 -52 30 -212 310 l-163 286 -75 39 c-48 26 -76 36 -81 29 -14 -24
-63 29 -166 180 -59 86 -121 170 -139 187 -18 17 -66 49 -108 70 l-75 39 -17
75 -16 76 -78 42 c-43 23 -79 41 -81 41 -2 -1 -118 -33 -256 -73z m62 -426
c26 -22 60 -47 76 -55 26 -14 42 -55 21 -55 -4 0 -41 34 -82 75 -81 82 -88 98
-15 35z m-363 -104 c51 -28 99 -42 256 -73 105 -20 192 -41 192 -46 0 -5 -10
-6 -22 -3 -13 3 -122 27 -243 52 -182 37 -223 49 -237 67 -17 22 -23 37 -13
37 2 0 33 -15 67 -34z m-419 -31 c-20 -55 -30 -62 -58 -41 -19 15 -18 17 25
55 25 21 46 38 48 36 1 -1 -5 -24 -15 -50z m628 -150 c118 -58 248 -125 289
-149 41 -25 99 -52 127 -62 29 -10 53 -21 53 -24 0 -7 -137 -95 -145 -94 -4 1
-71 53 -148 115 -123 98 -274 199 -299 199 -5 0 -8 -8 -8 -17 0 -10 -3 -13 -9
-7 -13 13 -84 144 -78 144 2 0 101 -47 218 -105z m827 30 c23 -5 31 -10 24
-17 -13 -13 -50 -4 -77 17 l-20 16 20 -5 c11 -2 35 -8 53 -11z m-868 -345 c22
-11 52 -20 67 -20 15 0 35 -5 43 -10 11 -7 6 -10 -20 -10 -19 0 -73 -3 -120
-6 l-85 -7 34 37 c19 20 36 36 38 36 2 0 21 -9 43 -20z m-1263 -16 c-3 -3 -12
-4 -19 -1 -8 3 -5 6 6 6 11 1 17 -2 13 -5z m-84 -162 c-2 -12 -9 -36 -16 -54
l-14 -33 -21 42 c-12 24 -36 50 -52 58 -30 16 -35 29 -24 59 5 14 15 12 68
-17 47 -27 60 -39 59 -55z m2460 29 c28 -16 82 -37 120 -46 37 -10 65 -20 63
-22 -2 -2 -41 5 -86 17 -45 12 -84 19 -86 17 -7 -7 241 -199 298 -230 32 -18
58 -36 58 -40 0 -21 -58 16 -210 133 -91 69 -177 134 -192 144 -16 10 -28 27
-28 37 0 24 1 24 63 -10z m-2743 -221 c0 -5 -4 -10 -9 -10 -6 0 -13 5 -16 10
-3 6 1 10 9 10 9 0 16 -4 16 -10z m2650 -37 c13 -10 42 -20 64 -23 22 -3 41
-11 44 -18 2 -7 0 -12 -5 -11 -4 1 -16 -1 -26 -6 -26 -11 -117 33 -117 57 0
22 9 23 40 1z m-2288 -244 c27 -63 48 -116 48 -118 0 -2 -10 11 -22 29 -20 28
-152 110 -162 99 -3 -3 -74 -882 -77 -949 l-1 -25 -7 25 c-5 18 -27 36 -75 63
-38 20 -73 37 -78 37 -5 0 -6 -21 -4 -47 8 -71 29 -643 25 -648 -4 -3 -174
312 -187 346 -2 5 16 -2 40 -16 24 -14 46 -25 51 -25 11 0 -4 794 -15 798 -5
2 -5 9 1 16 5 6 30 92 54 189 25 98 48 181 51 184 3 3 25 -6 50 -20 l46 -25
97 104 c53 57 101 103 107 101 6 -2 32 -55 58 -118z m1453 -209 c198 -111 364
-206 369 -210 8 -8 -23 -59 -37 -60 -4 0 -144 89 -310 199 -276 182 -416 266
-377 228 28 -27 565 -453 595 -472 17 -10 31 -20 33 -21 2 -1 -4 -14 -13 -28
-17 -25 -16 -27 9 -60 14 -19 26 -37 26 -41 0 -3 -178 161 -395 365 -217 205
-395 373 -395 375 0 2 30 -13 68 -34 37 -21 229 -129 427 -241z m715 265 c0
-13 -4 -14 -20 -5 -11 6 -20 13 -20 15 0 3 9 5 20 5 11 0 20 -7 20 -15z
m-1805 -177 c14 -6 25 -14 25 -17 0 -3 -22 -31 -50 -61 l-49 -55 19 70 c11 38
20 71 20 72 0 5 9 3 35 -9z m-174 -195 c16 -10 29 -20 29 -24 0 -8 -30 -33
-34 -28 -15 20 -36 55 -36 61 0 12 9 10 41 -9z m604 -96 c77 -40 416 -214 753
-386 522 -267 640 -331 607 -331 -3 0 -60 28 -127 61 -73 37 -124 57 -126 50
-2 -6 -8 -11 -14 -11 -5 0 -138 68 -295 151 -156 83 -286 150 -288 147 -2 -2
53 -91 124 -198 70 -107 131 -202 135 -210 5 -8 -100 95 -232 230 -163 168
-253 252 -280 264 -36 16 -41 23 -44 55 -3 36 -4 36 -165 119 -151 77 -162 81
-153 57 16 -41 12 -47 -17 -31 -63 33 -67 39 -49 74 9 18 20 32 24 32 4 0 71
-33 147 -73z m-1510 -56 l-40 -39 -139 24 c-166 28 -178 32 -106 34 30 1 98 6
150 10 52 3 113 7 135 8 l40 2 -40 -39z m-921 -17 c33 -9 82 -27 107 -41 44
-24 48 -24 78 -9 30 16 33 15 92 -14 34 -17 59 -33 58 -34 -4 -3 -302 21 -334
27 -11 3 -2 5 20 6 l40 1 -65 36 c-93 52 -93 53 4 28z m43 -463 c100 -64 189
-120 197 -126 15 -9 14 -13 -6 -37 l-23 -28 -280 211 c-154 116 -309 226 -345
245 -55 29 -150 105 -150 119 0 2 96 -57 213 -132 116 -75 294 -188 394 -252z
m593 350 c0 -23 -28 -31 -61 -17 l-34 14 30 5 c53 7 65 7 65 -2z m143 -13
c-19 -19 -25 -20 -53 -8 -50 21 -45 30 17 30 l57 0 -21 -22z m-910 -358 c126
-113 241 -211 258 -219 20 -10 28 -20 24 -32 -5 -13 11 -27 68 -58 66 -36 77
-40 108 -31 66 19 65 21 58 -90 -3 -55 -8 -102 -10 -105 -3 -2 -178 169 -389
382 -212 212 -376 379 -365 372 12 -8 123 -106 248 -219z m2582 142 l7 -34
-31 17 c-36 18 -36 17 -15 58 15 29 18 30 24 12 4 -11 11 -35 15 -53z m144
-181 c71 -37 119 -50 334 -92 l217 -42 0 -27 0 -28 -56 30 c-44 24 -111 42
-288 80 -279 59 -266 55 -266 79 0 24 13 24 59 0z m1236 -37 c21 8 25 -6 9
-29 -14 -19 -16 -18 -57 24 l-42 42 38 -21 c20 -12 44 -20 52 -16z m-1195
-144 l38 -45 -82 40 c-46 22 -81 45 -80 50 1 6 5 23 9 39 l6 29 35 -34 c20
-19 53 -54 74 -79z m-1150 -60 c12 -8 11 -10 -7 -10 -13 0 -23 5 -23 10 0 13
11 13 30 0z m333 -30 c43 -7 75 -15 73 -18 -6 -6 -246 19 -246 26 0 3 8 10 17
17 13 10 23 10 47 0 17 -7 66 -19 109 -25z m335 -66 c47 -10 82 -22 82 -29 0
-27 -33 -105 -42 -99 -5 3 -7 12 -4 20 3 8 -3 19 -13 26 -11 6 -17 17 -14 23
2 7 -9 17 -24 24 -36 15 -91 51 -78 51 6 0 47 -7 93 -16z m1252 -64 c11 -11
20 -30 20 -42 0 -32 11 -46 56 -73 53 -33 28 -32 -30 1 -44 25 -59 46 -80 112
-9 28 7 29 34 2z m-835 -183 l18 -32 -29 26 c-16 15 -48 36 -71 48 -44 22 -47
29 -37 68 6 20 10 18 53 -28 26 -28 56 -64 66 -82z m211 -74 c65 -71 99 -111
74 -90 -25 21 -82 68 -127 104 -61 49 -83 73 -83 90 0 13 4 23 8 23 5 0 62
-57 128 -127z m-2270 48 c-3 -5 43 -33 102 -62 59 -30 109 -55 111 -56 6 -4
-31 -43 -50 -53 -12 -7 -42 18 -130 107 -102 103 -109 113 -71 94 23 -12 40
-25 38 -30z m3076 19 l33 -21 -35 3 c-24 2 -36 9 -38 21 -4 22 0 21 40 -3z
m-4207 -30 c42 -20 158 -55 290 -89 183 -47 221 -59 223 -75 3 -15 0 -17 -14
-11 -11 4 -111 34 -224 65 l-205 57 -60 -58 -60 -58 -30 16 c-16 9 -32 17 -34
19 -6 5 32 175 38 171 3 -2 38 -18 76 -37z m2906 -176 c17 -8 29 -17 27 -18
-1 -1 -18 -13 -35 -25 l-33 -22 0 40 c0 47 0 47 41 25z m427 -4 c24 -27 135
-86 282 -149 98 -42 237 -109 258 -126 2 -2 -3 -17 -10 -34 l-13 -31 -175 96
c-96 53 -233 128 -305 167 l-130 71 30 12 c40 17 44 17 63 -6z m-77 -168 c48
-75 86 -138 84 -140 -11 -12 -39 25 -90 118 -33 61 -62 110 -65 110 -3 0 -21
10 -40 22 l-35 22 25 6 c14 4 27 5 30 3 3 -2 44 -66 91 -141z m-2755 -95 l-7
-182 151 -79 c142 -73 150 -79 131 -92 -18 -13 -24 -13 -43 -1 -13 8 -81 38
-152 68 l-129 53 -25 -30 c-14 -16 -40 -46 -58 -67 l-34 -37 -41 21 c-32 16
-228 59 -271 59 -4 0 -23 31 -42 69 -33 65 -40 71 -110 110 l-75 41 10 32 c5
18 9 35 9 38 1 3 7 -7 15 -22 12 -21 146 -108 167 -108 2 0 10 63 18 140 12
134 14 139 34 135 11 -2 104 4 206 14 102 10 200 19 219 20 l34 1 -7 -183z
m293 -89 c40 -73 46 -80 112 -114 39 -20 66 -40 62 -44 -13 -11 -143 -82 -143
-78 0 3 -20 74 -45 159 -25 85 -48 163 -51 174 l-6 20 14 -20 c8 -11 34 -55
57 -97z m310 -58 c25 0 24 2 10 -38 -9 -27 -14 -30 -29 -22 -14 8 -28 5 -54
-11 -20 -12 -36 -18 -36 -15 0 4 11 29 25 57 22 43 28 48 45 39 10 -5 28 -10
39 -10z m1786 -40 c3 -5 1 -10 -4 -10 -6 0 -11 5 -11 10 0 6 2 10 4 10 3 0 8
-4 11 -10z m-2522 -257 c-7 -2 -19 -2 -25 0 -7 3 -2 5 12 5 14 0 19 -2 13 -5z
m2461 -80 c-9 -35 -8 -35 -28 -27 -15 6 -15 9 5 30 29 30 31 30 23 -3z m-2585
-148 c24 -12 31 -26 50 -101 12 -48 20 -88 18 -90 -1 -2 -26 44 -55 101 -28
58 -49 105 -46 105 3 0 18 -7 33 -15z m656 5 c3 -5 2 -10 -4 -10 -5 0 -13 5
-16 10 -3 6 -2 10 4 10 5 0 13 -4 16 -10z m205 -215 c74 -43 137 -80 139 -82
3 -1 -6 -14 -18 -27 l-22 -24 -152 94 c-83 52 -153 96 -155 99 -2 2 -1 16 2
30 l7 26 32 -19 c18 -11 93 -55 167 -97z m250 75 c13 -8 13 -10 -2 -10 -9 0
-20 5 -23 10 -8 13 5 13 25 0z m-933 -245 c18 -52 9 -56 -16 -6 -24 46 -26 54
-9 49 6 -2 17 -21 25 -43z m467 0 c11 -25 28 -41 61 -57 41 -20 45 -25 40 -48
-9 -33 -10 -34 -35 -20 -14 7 -39 9 -67 5 -40 -6 -44 -5 -40 12 3 10 9 46 12
81 4 34 9 62 11 62 2 0 10 -16 18 -35z m1346 -86 c0 -6 -4 -7 -10 -4 -5 3 -10
11 -10 16 0 6 5 7 10 4 6 -3 10 -11 10 -16z m-1511 -48 c24 -15 24 -15 -25
-26 -27 -6 -50 -10 -52 -9 -2 1 4 16 13 33 10 20 20 29 28 25 7 -4 23 -14 36
-23z m1566 -57 c9 -15 12 -23 6 -20 -11 7 -35 46 -28 46 3 0 12 -12 22 -26z
m-1770 -2 c-3 -3 -11 0 -18 7 -9 10 -8 11 6 5 10 -3 15 -9 12 -12z m-1034
-992 c23 -13 23 -19 4 -44 -14 -19 -16 -18 -55 8 -40 26 -52 40 -26 30 9 -3
21 7 33 26 16 28 18 29 21 11 2 -12 12 -26 23 -31z"/>
<path d="M1689 8723 c-41 -107 -149 -409 -149 -418 0 -23 185 -105 729 -324
316 -127 575 -230 577 -228 2 2 -221 209 -494 461 -379 347 -515 467 -568 496
-38 22 -72 39 -77 40 -4 0 -12 -12 -18 -27z"/>
<path d="M110 410 c-7 -17 -11 -32 -9 -34 2 -2 33 -20 69 -40 l65 -36 -65 6
-65 5 41 -38 c148 -138 218 -195 284 -231 l75 -41 91 90 c76 74 89 91 75 99
-13 8 -14 9 -1 10 31 1 -112 71 -314 154 -115 47 -214 86 -221 86 -7 0 -18
-14 -25 -30z"/>
</g>
</svg>
