<?xml version="1.0" standalone="no"?>
<!DOCTYPE svg PUBLIC "-//W3C//DTD SVG 20010904//EN"
 "http://www.w3.org/TR/2001/REC-SVG-20010904/DTD/svg10.dtd">
<svg version="1.0" xmlns="http://www.w3.org/2000/svg"
 width="1280.000000pt" height="994.000000pt" viewBox="0 0 1280.000000 994.000000"
 preserveAspectRatio="xMidYMid meet">
<metadata>
Created by potrace 1.15, written by Peter Selinger 2001-2017
</metadata>
<g transform="translate(0.000000,994.000000) scale(0.100000,-0.100000)"
fill="#000000" stroke="none">
<path d="M7015 9929 c-135 -11 -308 -34 -435 -59 -52 -11 -138 -24 -190 -30
-590 -69 -1165 -237 -1660 -485 -555 -278 -1082 -677 -1474 -1116 -540 -604
-957 -1373 -1196 -2203 -179 -623 -263 -1133 -300 -1821 -6 -104 -21 -266 -35
-360 -13 -93 -29 -231 -35 -305 -6 -74 -13 -149 -15 -166 -7 -39 -85 -159
-168 -253 -63 -73 -214 -211 -230 -211 -5 0 -16 -8 -25 -19 -10 -10 -96 -80
-192 -156 -348 -275 -725 -594 -902 -764 -124 -118 -164 -190 -155 -277 13
-124 108 -241 295 -364 257 -170 631 -331 1203 -518 243 -80 1406 -410 1814
-515 827 -214 1367 -301 1880 -302 457 0 583 26 1173 246 729 272 1411 565
2060 884 l334 165 156 15 c1578 156 2831 495 3457 934 264 186 406 381 421
581 l5 65 -92 70 c-111 86 -267 247 -332 343 -100 149 -149 297 -146 436 2 69
-10 309 -31 641 -46 695 -163 1303 -370 1909 -113 332 -200 546 -321 792 -389
788 -991 1487 -1672 1943 -59 39 -106 75 -103 79 9 15 -21 40 -129 109 -843
538 -1717 778 -2590 712z"/>
</g>
</svg>
