<?xml version="1.0" standalone="no"?>
<!DOCTYPE svg PUBLIC "-//W3C//DTD SVG 20010904//EN"
 "http://www.w3.org/TR/2001/REC-SVG-20010904/DTD/svg10.dtd">
<svg version="1.0" xmlns="http://www.w3.org/2000/svg"
 width="1251.000000pt" height="1280.000000pt" viewBox="0 0 1251.000000 1280.000000"
 preserveAspectRatio="xMidYMid meet">
<metadata>
Created by potrace 1.15, written by Peter Selinger 2001-2017
</metadata>
<g transform="translate(0.000000,1280.000000) scale(0.100000,-0.100000)"
fill="#000000" stroke="none">
<path d="M7055 12765 c-373 -39 -720 -131 -1004 -266 -72 -35 -137 -59 -156
-59 -148 0 -545 -111 -887 -249 -1001 -401 -1938 -1045 -2583 -1776 -167 -189
-274 -327 -410 -530 -381 -572 -605 -1170 -679 -1816 -16 -142 -55 -723 -81
-1199 -8 -157 -17 -321 -20 -365 -3 -44 -5 -179 -6 -299 l-1 -220 -223 -390
c-412 -723 -650 -1162 -746 -1375 -55 -124 -151 -469 -188 -676 -75 -422 -44
-779 89 -1055 83 -170 177 -284 436 -531 602 -571 1409 -1157 2004 -1454 272
-136 403 -183 765 -275 506 -128 901 -178 1445 -182 389 -3 400 -1 703 102
311 105 398 149 712 359 110 73 228 151 262 171 34 21 135 96 225 167 89 71
291 230 448 353 891 699 2230 1806 3590 2970 382 326 489 426 686 640 726 791
1094 1515 1059 2085 -34 572 -220 1050 -527 1359 -98 98 -108 112 -108 145 0
58 -37 289 -71 442 -165 755 -545 1501 -1080 2124 -126 147 -397 419 -539 541
-58 50 -172 144 -255 209 -82 66 -244 200 -359 300 -244 211 -287 245 -423
335 -120 80 -163 101 -343 168 -308 114 -607 188 -945 233 -203 27 -596 34
-790 14z"/>
</g>
</svg>
