<?xml version="1.0" standalone="no"?>
<!DOCTYPE svg PUBLIC "-//W3C//DTD SVG 20010904//EN"
 "http://www.w3.org/TR/2001/REC-SVG-20010904/DTD/svg10.dtd">
<svg version="1.0" xmlns="http://www.w3.org/2000/svg"
 width="1280.000000pt" height="811.000000pt" viewBox="0 0 1280.000000 811.000000"
 preserveAspectRatio="xMidYMid meet">
<metadata>
Created by potrace 1.15, written by Peter Selinger 2001-2017
</metadata>
<g transform="translate(0.000000,811.000000) scale(0.100000,-0.100000)"
fill="#000000" stroke="none">
<path d="M10800 8095 c-359 -88 -702 -542 -818 -1085 -67 -310 -51 -657 44
-954 49 -152 131 -316 273 -546 227 -366 280 -501 288 -736 9 -239 -39 -440
-191 -803 -34 -82 -45 -89 -111 -77 -66 13 -225 195 -308 355 -93 179 -121
286 -142 561 -30 382 -86 486 -426 790 -328 293 -392 380 -494 670 -83 236
-170 374 -314 496 -335 287 -872 449 -1368 414 -197 -15 -357 -50 -593 -131
-541 -187 -757 -253 -956 -294 -69 -14 -131 -25 -139 -25 -7 0 -21 21 -31 46
-25 66 -86 157 -142 211 -26 26 -94 78 -152 116 -222 148 -439 224 -729 258
-153 17 -553 7 -761 -20 -237 -31 -1232 -176 -1450 -212 -513 -84 -831 -175
-1135 -324 -268 -131 -473 -281 -675 -491 -127 -133 -219 -260 -300 -416 -175
-337 -209 -650 -124 -1143 153 -886 556 -1592 1097 -1923 171 -105 303 -157
622 -242 343 -91 513 -164 753 -322 176 -116 304 -219 1042 -833 388 -323 742
-615 787 -649 242 -182 488 -277 718 -278 79 -1 124 4 160 17 65 22 123 62
141 97 42 80 41 474 -2 1288 l-6 115 36 -68 c132 -251 348 -453 628 -587 344
-164 761 -232 1438 -232 l305 0 24 -57 c151 -348 452 -706 781 -929 167 -113
267 -146 445 -146 141 -1 212 15 330 74 71 35 175 109 183 130 2 4 -14 14 -35
20 -118 39 -292 148 -451 285 -151 129 -457 446 -520 538 -50 72 -108 184
-101 192 2 2 84 26 182 54 379 109 532 137 957 171 340 27 312 29 304 -20 -8
-46 -26 -26 281 -300 757 -673 1326 -996 1955 -1107 120 -21 179 -26 340 -27
l195 -1 60 30 c75 38 108 87 102 154 -3 23 -11 49 -19 57 -22 22 -119 34 -274
34 -246 0 -316 23 -628 210 -631 378 -955 654 -1158 986 -29 48 -68 102 -85
119 l-32 32 57 23 c305 124 606 355 822 629 239 304 435 722 514 1096 50 239
60 343 60 620 1 351 -29 593 -115 944 -104 423 -256 814 -538 1384 -83 166
-163 341 -180 389 -83 241 -81 430 7 568 16 25 67 79 113 120 173 154 208 204
216 313 8 109 -53 189 -155 202 -26 3 -66 8 -88 11 -30 3 -67 23 -137 73 -136
97 -236 120 -377 86z"/>
</g>
</svg>
