<?xml version="1.0" standalone="no"?>
<!DOCTYPE svg PUBLIC "-//W3C//DTD SVG 20010904//EN"
 "http://www.w3.org/TR/2001/REC-SVG-20010904/DTD/svg10.dtd">
<svg version="1.0" xmlns="http://www.w3.org/2000/svg"
 width="1280.000000pt" height="1280.000000pt" viewBox="0 0 1280.000000 1280.000000"
 preserveAspectRatio="xMidYMid meet">
<metadata>
Created by potrace 1.15, written by Peter Selinger 2001-2017
</metadata>
<g transform="translate(0.000000,1280.000000) scale(0.100000,-0.100000)"
fill="#cddc39" stroke="none">
<path d="M5975 12789 c-527 -35 -1103 -149 -1610 -321 -1545 -523 -2832 -1613
-3609 -3055 -682 -1267 -914 -2747 -652 -4169 420 -2279 2057 -4166 4261
-4912 1056 -357 2203 -429 3305 -206 1080 219 2093 721 2935 1455 167 145 469
447 614 614 839 962 1381 2167 1531 3398 39 327 50 495 50 807 0 135 -5 313
-10 395 -88 1314 -546 2512 -1356 3550 -221 283 -555 635 -829 874 -1070 933
-2399 1481 -3810 1571 -185 12 -631 11 -820 -1z"/>
</g>
</svg>
