<?xml version="1.0" encoding="utf-8"?><!-- Uploaded to: SVG Repo, www.svgrepo.com, Generator: SVG Repo Mixer Tools -->
<svg fill="#000000" width="800px" height="800px" viewBox="0 0 24 24" version="1.2" baseProfile="tiny" xmlns="http://www.w3.org/2000/svg"><path d="M18 12h-12c-1.654 0-3-1.346-3-3s1.346-3 3-3h12c1.654 0 3 1.346 3 3s-1.346 3-3 3zm-12-4c-.552 0-1 .449-1 1s.448 1 1 1h12c.552 0 1-.449 1-1s-.448-1-1-1h-12zM18 19h-12c-1.654 0-3-1.346-3-3s1.346-3 3-3h12c1.654 0 3 1.346 3 3s-1.346 3-3 3zm-12-4c-.552 0-1 .449-1 1s.448 1 1 1h12c.552 0 1-.449 1-1s-.448-1-1-1h-12z"/></svg>