<?xml version="1.0" standalone="no"?>
<!DOCTYPE svg PUBLIC "-//W3C//DTD SVG 20010904//EN"
 "http://www.w3.org/TR/2001/REC-SVG-20010904/DTD/svg10.dtd">
<svg version="1.0" xmlns="http://www.w3.org/2000/svg"
 width="1280.000000pt" height="640.000000pt" viewBox="0 0 1280.000000 640.000000"
 preserveAspectRatio="xMidYMid meet">
<metadata>
Created by potrace 1.15, written by Peter Selinger 2001-2017
</metadata>
<g transform="translate(0.000000,640.000000) scale(0.100000,-0.100000)"
fill="#cddc39" stroke="none">
<path d="M1421 4791 c-1394 -6 -1404 -6 -1406 -26 -2 -11 -6 -726 -9 -1588
l-7 -1568 2973 4 c2087 3 3122 8 3473 18 615 16 2291 16 3665 1 553 -7 1384
-15 1848 -19 l842 -6 0 1591 0 1592 -1943 0 c-1069 0 -3314 2 -4988 3 -1674 2
-3676 1 -4448 -2z"/>
</g>
</svg>
